# xmcd
#
# Track frame offsets:
#	150
#	16050
#	30273
#	47692
#	65300
#	83094
#	97620
#	115679
#	129888
#	145844
#	161744
#	175967
#	193386
#	210994
#	228788
#	243314
#	261373
#	275582
#
# Disc length: 3887 seconds
#
# Revision: 1
# Processed by: cddbd v1.5.2PL0 Copyright (c) Steve Scherf et al.
# Submitted via: audiograbber 1.83.01
#
DISCID=e20f2d12
DTITLE=Various Artist - 21003-9
DYEAR=2010
DGENRE=Country
TTITLE0=James Wesley - Real
TTITLE1=Bomshel - Just Fine
TTITLE2=John Rich - Country Done Come To Town
TTITLE3=Roys, The - Beautiful
TTITLE4=Jamey Johnson - Macon
TTITLE5=Savannah Jack - I Know
TTITLE6=Bridgette Tatum - That's Love Ya'll
TTITLE7=Karli Whetstone - I'm Having A Good Day
TTITLE8=Will Peppers - I Hope Heaven Has A Dirt Road
TTITLE9=James Wesley - Real-vocal
TTITLE10=Bomshel - Just Fine-vocal
TTITLE11=John Rich - Country Done Come To Town-vocal
TTITLE12=Roys, The - Beautiful-vocal
TTITLE13=Jamey Johnson - Macon-vocal
TTITLE14=Savannah Jack - I Know-vocal
TTITLE15=Bridgette Tatum - That's Love Ya'll-vocal
TTITLE16=Karli Whetstone - I'm Having A Good Day-vocal
TTITLE17=Will Peppers - I Hope Heaven Has A Dirt Road-vocal
EXTD=
EXTT0=
EXTT1=
EXTT2=
EXTT3=
EXTT4=
EXTT5=
EXTT6=
EXTT7=
EXTT8=
EXTT9=
EXTT10=
EXTT11=
EXTT12=
EXTT13=
EXTT14=
EXTT15=
EXTT16=
EXTT17=
PLAYORDER=
